<svg width="32" height="32" viewBox="0 0 32 32" fill="none" xmlns="http://www.w3.org/2000/svg">
<g clip-path="url(#clip0_9_152)">
<path d="M0 0H32V32H0"/>
<path d="M20.9375 31.1875C21.8125 31.1875 21.6875 32.25 21.6875 32.25H10.3125C10.3125 32.25 10.1875 31.1875 11.0625 31.1875C11.875 31.1875 12.0625 30.8125 12.0625 30.4375L12 27.6875C7.56246 28.6875 6.62496 25.5625 6.62496 25.5625C5.87496 23.6875 4.87496 23.25 4.87496 23.25C3.37496 22.25 4.93746 22.25 4.93746 22.25C6.56246 22.375 7.43746 23.875 7.43746 23.875C8.81246 26.3125 11.125 25.625 12.0625 25.25C12.1875 24.1875 12.625 23.5 13.0625 23.0625C9.49996 22.6875 5.81246 21.3125 5.81246 15.1875C5.81246 13.4375 6.43746 12 7.43746 10.875C7.24996 10.5 6.74996 8.875 7.62496 6.6875C7.62496 6.6875 8.93746 6.25 12 8.3125C14.625 7.5625 17.375 7.5625 20 8.3125C23.0625 6.25 24.375 6.6875 24.375 6.6875C25.25 8.875 24.75 10.5 24.5625 10.875C25.5625 12 26.1875 13.4375 26.1875 15.1875C26.1875 21.3125 22.4375 22.6875 18.875 23.0625C19.5 23.5625 20 24.5625 20 26.0625L19.9375 30.4375C19.9375 30.8125 20.125 31.1875 20.9375 31.1875Z" fill="white"/>
</g>
<defs>
<clipPath id="clip0_9_152">
<rect width="32" height="32" fill="white"/>
</clipPath>
</defs>
</svg>
