<svg width="32" height="32" viewBox="0 0 32 32" fill="none" xmlns="http://www.w3.org/2000/svg">
<g clip-path="url(#clip0_9_155)">
<path d="M0 0H32V32H0V0Z" />
<path d="M7.8637 12.8932H11.4421V23.6605H7.8637V12.8932ZM9.67657 7.70226C8.45222 7.70226 7.65222 8.50643 7.65222 9.56243C7.65222 10.5962 8.42857 11.4226 9.63066 11.4226H9.65292C10.9009 11.4226 11.6787 10.5962 11.6787 9.56243C11.655 8.50504 10.9009 7.70226 9.67657 7.70226ZM20.2282 12.64C18.3263 12.64 17.4776 13.6849 17.0018 14.4195V12.8932H13.4234C13.4707 13.9033 13.4234 23.6605 13.4234 23.6605H17.0018V17.6473C17.0018 17.3259 17.0254 17.0045 17.12 16.7736C17.3788 16.1308 17.9687 15.4657 18.9566 15.4657C20.2505 15.4657 20.7694 16.4536 20.7694 17.9005V23.6605H24.3479V17.4859C24.3479 14.1788 22.5809 12.64 20.2282 12.64Z" fill="white"/>
</g>
<defs>
<clipPath id="clip0_9_155">
<rect width="32" height="32" fill="white"/>
</clipPath>
</defs>
</svg>
